Coordinates
version=1
nRows=13
nColumns=40
inDegrees=yes

Units are S.I. units (second, meters, Newtons, ...)
Angles are in degrees.

endheader
time	pelvis_tilt	pelvis_list	pelvis_rotation	pelvis_tx	pelvis_ty	pelvis_tz	hip_flexion_r	hip_adduction_r	hip_rotation_r	knee_angle_r	knee_angle_r_beta	ankle_angle_r	subtalar_angle_r	mtp_angle_r	hip_flexion_l	hip_adduction_l	hip_rotation_l	knee_angle_l	knee_angle_l_beta	ankle_angle_l	subtalar_angle_l	mtp_angle_l	lumbar_extension	lumbar_bending	lumbar_rotation	arm_flex_r	arm_add_r	arm_rot_r	elbow_flex_r	pro_sup_r	wrist_flex_r	wrist_dev_r	arm_flex_l	arm_add_l	arm_rot_l	elbow_flex_l	pro_sup_l	wrist_flex_l	wrist_dev_l
      1.05000000	     -1.15096445	     -1.08738925	      1.11210834	     -0.09559459	      0.89206179	     -1.04831965	     23.53379883	     -4.40707850	    -12.03047770	    -61.93044144	     -1.08089011	      1.05651173	    -17.64506266	     20.98527658	     13.54799861	     -0.46295191	     10.01158498	    -29.39963151	     -0.51312037	     12.92112287	      9.61162106	      1.27216177	     -4.81434402	     -1.73945592	     -6.02163930	     -2.52474598	     -8.30583448	    -11.80328506	     23.98867869	     89.95437384	      0.00000000	      0.00000000	      6.09544257	     12.46893278	     15.28697712	     36.72124408	     89.95437384	      0.00000000	      0.00000000
      1.06000000	     -0.65919374	     -1.26482817	      1.42358698	     -0.08625341	      0.89308027	     -1.04883304	     23.67779619	     -4.15710706	    -12.27242456	    -60.11687617	     -1.04923743	      1.71091241	    -17.31734293	     21.07560412	     12.11603330	     -0.14853457	     10.36932700	    -28.99312593	     -0.50602551	     13.04501958	      8.50358370	      0.92653714	     -5.41204567	     -1.50889307	     -6.32458383	     -2.77565384	     -8.18466998	    -12.55754773	     23.31716497	     89.95437384	      0.00000000	      0.00000000	      6.73839033	     12.61412693	     15.35761642	     37.76194880	     89.95437384	      0.00000000	      0.00000000
      1.07000000	     -0.94170929	     -1.14732860	      1.67880376	     -0.07767181	      0.89262450	     -1.04956814	     24.88276699	     -4.30221873	    -12.35101828	    -58.48961452	     -1.02083635	      2.17486522	    -17.03077220	     20.70464225	     11.73299071	     -0.27547978	     10.53465685	    -28.84759441	     -0.50348550	     13.19441351	      8.21976890	      0.85239880	     -5.19325958	     -1.60089348	     -6.50315414	     -3.28773542	     -8.21897308	    -12.55257920	     22.98155206	     89.95437384	      0.00000000	      0.00000000	      7.43477539	     12.73755234	     15.22375382	     38.63033345	     89.95437384	      0.00000000	      0.00000000
      1.08000000	     -0.48515854	     -1.48834831	      2.09442666	     -0.06848755	      0.89341700	     -1.04974480	     24.85865836	     -3.74878826	    -12.62454598	    -56.18540062	     -0.98062023	      3.02385320	    -16.86541320	     20.63379954	     10.35994874	      0.19199335	     10.48294212	    -28.42069719	     -0.49603474	     13.46702837	      6.98064620	      0.43401738	     -5.76319880	     -1.22883701	     -6.96621942	     -3.32105339	     -8.08435052	    -13.27890889	     22.06183078	     89.95437384	      0.00000000	      0.00000000	      7.91273071	     13.01618857	     15.07711180	     39.86785873	     89.95437384	      0.00000000	      0.00000000
      1.09000000	     -0.52520754	     -1.50351749	      2.42856014	     -0.05939097	      0.89326050	     -1.05016027	     25.45924839	     -3.61174129	    -12.65885855	    -53.90221241	     -0.94077108	      3.61360917	    -16.64992254	     20.41436829	      9.60088082	      0.28677216	     10.61449073	    -28.14814676	     -0.49127784	     13.67658579	      6.26604506	      0.15441982	     -5.75229158	     -1.19522095	     -7.35834764	     -3.58888488	     -8.00828301	    -13.60152426	     21.42775883	     89.95437384	      0.00000000	      0.00000000	      8.35394062	     13.23979492	     14.90719667	     40.91338298	     89.95437384	      0.00000000	      0.00000000
      1.10000000	     -0.92422154	     -1.23000771	      2.59651028	     -0.05077258	      0.89236103	     -1.05078136	     26.56493997	     -3.95728395	    -12.81319119	    -51.73631020	     -0.90296896	      3.88791237	    -16.21514081	     20.06960751	      9.34866106	      0.00525200	     10.83410765	    -28.05385062	     -0.48963206	     13.78379070	      6.01404698	      0.08161573	     -5.40079865	     -1.46574377	     -7.44346245	     -4.15438909	     -8.05571566	    -13.58658926	     21.26639835	     89.95437384	      0.00000000	      0.00000000	      9.00174397	     13.32187418	     14.82523778	     41.76417792	     89.95437384	      0.00000000	      0.00000000
      1.11000000	     -0.48755973	     -1.66672399	      2.90997825	     -0.04128096	      0.89297866	     -1.05050981	     26.24773878	     -3.16466912	    -12.86961880	    -48.69344549	     -0.84986095	      4.22908885	    -15.95682299	     19.92369409	      7.95787247	      0.73704105	     11.16176584	    -27.58629829	     -0.48147173	     13.96286572	      4.33748849	     -0.73663332	     -5.90195505	     -0.98140439	     -7.78198070	     -4.27213533	     -7.92519112	    -14.29872899	     20.60088435	     89.95437384	      0.00000000	      0.00000000	      9.45113967	     13.55270526	     14.72284179	     42.78102694	     89.95437384	      0.00000000	      0.00000000
      1.12000000	     -0.88568198	     -1.47726175	      3.15974063	     -0.03245947	      0.89204744	     -1.05071567	     27.14609927	     -3.35054956	    -12.97283173	    -46.16317466	     -0.80569939	      4.35394381	    -15.30761632	     19.51703984	      7.63949822	      0.55937304	     11.20890118	    -27.36471252	     -0.47760433	     14.18489108	      4.06622035	     -0.86768985	     -5.53726552	     -1.20943942	     -8.03903634	     -4.70188521	     -7.87893780	    -14.35133153	     20.31014495	     89.95437384	      0.00000000	      0.00000000	      9.90797001	     13.76127661	     14.56948477	     43.70072018	     89.95437384	      0.00000000	      0.00000000
      1.13000000	     -0.77911093	     -1.66639109	      3.55466658	     -0.02318852	      0.89193215	     -1.05093012	     27.15547697	     -3.10291189	    -13.39226636	    -43.06879405	     -0.75169226	      4.29905573	    -14.76552453	     19.24137533	      6.73808783	      0.87199462	     11.19498222	    -27.10958771	     -0.47315156	     14.45492357	      3.56801516	     -1.18486793	     -5.68970972	     -0.96840587	     -8.49051258	     -4.86916086	     -7.82349576	    -14.71990627	     19.78773687	     89.95437384	      0.00000000	      0.00000000	     10.28866774	     13.94243866	     14.53126682	     44.67316994	     89.95437384	      0.00000000	      0.00000000
      1.14000000	     -1.20361494	     -1.38261843	      3.74411695	     -0.01456684	      0.89087563	     -1.05098902	     27.97022288	     -3.36888906	    -13.41138627	    -40.42768963	     -0.70559629	      4.22129359	    -14.05004481	     18.98848496	      6.46924624	      0.60630283	     11.28981630	    -26.92752128	     -0.46997391	     14.53971856	      3.21446251	     -1.30450845	     -5.33624499	     -1.31582653	     -8.70636364	     -5.31952488	     -7.75665434	    -14.80269269	     19.75566753	     89.95437384	      0.00000000	      0.00000000	     10.75187565	     14.15491277	     14.41111659	     45.53237967	     89.95437384	      0.00000000	      0.00000000
      1.15000000	     -1.50685746	     -1.28271688	      3.98277164	     -0.00581514	      0.89001173	     -1.05099460	     28.49570138	     -3.43913225	    -13.57833913	    -37.52954232	     -0.65501408	      4.11486786	    -13.23399130	     18.81420231	      6.03436261	      0.53500419	     11.26109646	    -26.68585903	     -0.46575610	     14.73440327	      2.86098954	     -1.45955564	     -5.10406306	     -1.43832826	     -8.98529272	     -5.62412088	     -7.67987231	    -14.96969043	     19.51943340	     89.95437384	      0.00000000	      0.00000000	     11.13410000	     14.35720749	     14.31748475	     46.37920861	     89.95437384	      0.00000000	      0.00000000
      1.16000000	     -1.19267694	     -1.52486832	      4.34924045	      0.00372530	      0.89008340	     -1.05089139	     28.00971640	     -3.19683603	    -14.43193019	    -34.31763263	     -0.59895568	      4.13258832	    -12.19927181	     18.58150749	      4.92718706	      1.03895130	     11.46637181	    -26.50454082	     -0.46259150	     14.79295344	      1.97173390	     -1.97162724	     -5.49108171	     -1.13257851	     -9.29874071	     -5.82664891	     -7.60252840	    -15.54245897	     19.20673878	     89.95437384	      0.00000000	      0.00000000	     11.55130063	     14.45864657	     14.31174273	     47.22435756	     89.95437384	      0.00000000	      0.00000000
      1.17000000	     -1.54476243	     -1.39748385	      4.57594242	      0.01250768	      0.88901885	     -1.05069406	     28.54221296	     -3.34610474	    -14.87124463	    -31.59277674	     -0.55139797	      4.15470316	    -11.19443802	     18.26258641	      4.60416250	      0.99459976	     11.52166284	    -26.35735371	     -0.46002260	     14.74313310	      1.43273988	     -2.24386664	     -5.18625257	     -1.30298234	     -9.53656498	     -6.13234847	     -7.51496689	    -15.75130023	     19.03764403	     89.95437384	      0.00000000	      0.00000000	     11.93455176	     14.67051556	     14.07014247	     47.93878830	     89.95437384	      0.00000000	      0.00000000
